<?xml version="1.0" standalone="no"?>
<!DOCTYPE svg PUBLIC "-//W3C//DTD SVG 20010904//EN"
 "http://www.w3.org/TR/2001/REC-SVG-20010904/DTD/svg10.dtd">
<svg version="1.0" xmlns="http://www.w3.org/2000/svg"
 width="700.000000pt" height="700.000000pt" viewBox="0 0 700.000000 700.000000"
 preserveAspectRatio="xMidYMid meet">
<metadata>
Created by potrace 1.11, written by Peter Selinger 2001-2013
</metadata>
<g transform="translate(0.000000,700.000000) scale(0.100000,-0.100000)"
fill="#000000" stroke="none">
<path d="M4950 6654 c-73 -39 -254 -154 -300 -190 -98 -78 -186 -149 -190
-153 -3 -4 -39 -35 -80 -71 -84 -73 -110 -98 -330 -314 -159 -155 -215 -206
-230 -206 -20 0 -42 38 -90 162 -118 299 -216 474 -327 586 -39 39 -77 72 -84
72 -13 0 -11 -19 15 -210 16 -112 22 -325 11 -385 -30 -163 -48 -213 -80 -221
-43 -11 -45 -9 -195 130 -261 243 -669 540 -919 670 -107 55 -109 52 -15 -51
49 -54 94 -102 100 -108 25 -23 138 -172 197 -263 66 -99 201 -356 217 -411
l9 -31 -52 -1 c-29 0 -119 -2 -202 -4 -82 -1 -202 -4 -266 -5 -279 -5 -623
-89 -884 -214 -496 -238 -828 -630 -1023 -1211 -30 -89 -66 -214 -77 -271 -17
-89 -44 -257 -50 -309 -4 -33 -8 -71 -10 -85 -26 -176 -27 -651 -1 -800 3 -14
7 -43 11 -65 3 -22 8 -56 11 -75 21 -136 90 -369 155 -527 193 -464 549 -895
973 -1175 165 -110 204 -133 352 -208 247 -125 484 -214 764 -286 37 -9 258
-55 283 -59 16 -2 40 -6 55 -9 34 -7 98 -16 137 -21 17 -2 55 -6 85 -10 171
-21 324 -29 575 -29 257 0 447 9 584 29 20 2 59 7 86 10 252 25 725 148 970
251 44 19 85 34 92 34 7 0 13 5 13 10 0 6 6 10 14 10 18 0 259 123 351 180
336 206 586 431 804 722 284 379 457 830 508 1318 10 96 10 494 0 585 -4 39
-10 93 -13 120 -23 243 -77 498 -150 706 -41 120 -129 322 -156 361 -10 14
-18 29 -18 33 0 11 -103 168 -161 245 -139 185 -339 363 -539 479 -46 27 -203
102 -244 117 -114 42 -270 90 -311 97 -16 3 -51 10 -77 16 -26 6 -74 13 -105
16 -32 3 -69 8 -83 10 -53 9 -246 16 -444 17 -184 1 -206 3 -200 17 4 9 15 39
24 66 37 106 115 271 204 430 61 109 200 295 314 420 25 28 57 62 71 78 34 37
20 34 -79 -19z m-2730 -1373 c0 -6 -40 -32 -90 -60 -197 -112 -273 -170 -447
-348 -197 -200 -294 -333 -409 -563 -68 -136 -109 -249 -147 -406 -42 -169
-77 -224 -182 -285 -114 -65 -219 -44 -273 56 -12 22 -16 53 -15 120 1 50 4
97 6 105 2 8 7 29 12 45 61 238 217 520 409 740 76 86 85 95 176 175 41 36 77
68 80 71 18 21 219 146 296 184 154 76 389 150 509 162 33 3 62 7 64 9 7 7 11
4 11 -5z"/>
</g>
</svg>
